# Blender 4.2.2 LTS
# www.blender.org
mtllib arrow-2.mtl
o Cylinder
v 0.000000 -0.657378 -0.128321
v 0.000000 0.657378 -0.128321
v 0.025034 -0.657378 -0.125856
v 0.025034 0.657378 -0.125856
v 0.049106 -0.657378 -0.118553
v 0.049106 0.657378 -0.118553
v 0.071291 -0.657378 -0.106695
v 0.071291 0.657378 -0.106695
v 0.090737 -0.657378 -0.090737
v 0.090737 0.657378 -0.090737
v 0.106695 -0.657378 -0.071291
v 0.106695 0.657378 -0.071291
v 0.118553 -0.657378 -0.049106
v 0.118553 0.657378 -0.049106
v 0.125856 -0.657378 -0.025034
v 0.125856 0.657378 -0.025034
v 0.128321 -0.657378 0.000000
v 0.128321 0.657378 0.000000
v 0.125856 -0.657378 0.025034
v 0.125856 0.657378 0.025034
v 0.118553 -0.657378 0.049106
v 0.118553 0.657378 0.049106
v 0.106695 -0.657378 0.071291
v 0.106695 0.657378 0.071291
v 0.090737 -0.657378 0.090737
v 0.090737 0.657378 0.090737
v 0.071291 -0.657378 0.106695
v 0.071291 0.657378 0.106695
v 0.049106 -0.657378 0.118553
v 0.049106 0.657378 0.118553
v 0.025034 -0.657378 0.125856
v 0.025034 0.657378 0.125856
v 0.000000 -0.657378 0.128321
v 0.000000 0.657378 0.128321
v -0.025034 -0.657378 0.125856
v -0.025034 0.657378 0.125856
v -0.049106 -0.657378 0.118553
v -0.049106 0.657378 0.118553
v -0.071291 -0.657378 0.106695
v -0.071291 0.657378 0.106695
v -0.090737 -0.657378 0.090737
v -0.090737 0.657378 0.090737
v -0.106695 -0.657378 0.071291
v -0.106695 0.657378 0.071291
v -0.118553 -0.657378 0.049106
v -0.118553 0.657378 0.049106
v -0.125856 -0.657378 0.025034
v -0.125856 0.657378 0.025034
v -0.128321 -0.657378 0.000000
v -0.128321 0.657378 0.000000
v -0.125856 -0.657378 -0.025034
v -0.125856 0.657378 -0.025034
v -0.118553 -0.657378 -0.049106
v -0.118553 0.657378 -0.049106
v -0.106695 -0.657378 -0.071291
v -0.106695 0.657378 -0.071291
v -0.090737 -0.657378 -0.090737
v -0.090737 0.657378 -0.090737
v -0.071291 -0.657378 -0.106695
v -0.071291 0.657378 -0.106695
v -0.049106 -0.657378 -0.118553
v -0.049106 0.657378 -0.118553
v -0.025034 -0.657378 -0.125856
v -0.025034 0.657378 -0.125856
v -0.000000 0.657378 -0.375766
v 0.073308 0.657378 -0.368546
v 0.143799 0.657378 -0.347162
v 0.208764 0.657378 -0.312438
v 0.265707 0.657378 -0.265707
v 0.312438 0.657378 -0.208764
v 0.347162 0.657378 -0.143799
v 0.368546 0.657378 -0.073308
v 0.375766 0.657378 0.000000
v 0.368546 0.657378 0.073308
v 0.347162 0.657378 0.143799
v 0.312438 0.657378 0.208764
v 0.265707 0.657378 0.265707
v 0.208764 0.657378 0.312438
v 0.143799 0.657378 0.347162
v 0.073308 0.657378 0.368546
v -0.000000 0.657378 0.375766
v -0.073308 0.657378 0.368546
v -0.143799 0.657378 0.347162
v -0.208764 0.657378 0.312438
v -0.265707 0.657378 0.265707
v -0.312438 0.657378 0.208764
v -0.347162 0.657378 0.143799
v -0.368546 0.657378 0.073308
v -0.375766 0.657378 0.000000
v -0.368546 0.657378 -0.073308
v -0.347162 0.657378 -0.143799
v -0.312438 0.657378 -0.208764
v -0.265707 0.657378 -0.265707
v -0.208764 0.657378 -0.312438
v -0.143799 0.657378 -0.347162
v -0.073308 0.657378 -0.368546
v -0.000000 1.388447 0.000000
v -0.000000 1.388447 0.000000
v -0.000000 1.388447 0.000000
v -0.000000 1.388447 0.000000
v -0.000000 1.388447 0.000000
v -0.000000 1.388447 0.000000
v -0.000000 1.388447 0.000000
v -0.000000 1.388447 0.000000
v -0.000000 1.388447 -0.000000
v -0.000000 1.388447 0.000000
v -0.000000 1.388447 0.000000
v -0.000000 1.388447 0.000000
v -0.000000 1.388447 0.000000
v -0.000000 1.388447 0.000000
v -0.000000 1.388447 0.000000
v -0.000000 1.388447 0.000000
v -0.000000 1.388447 0.000000
v -0.000000 1.388447 0.000000
v -0.000000 1.388447 0.000000
v -0.000000 1.388447 0.000000
v -0.000000 1.388447 0.000000
v -0.000000 1.388447 0.000000
v -0.000000 1.388447 0.000000
v -0.000000 1.388447 0.000000
v -0.000000 1.388447 -0.000000
v -0.000000 1.388447 0.000000
v -0.000000 1.388447 0.000000
v -0.000000 1.388447 0.000000
v -0.000000 1.388447 0.000000
v -0.000000 1.388447 0.000000
v -0.000000 1.388447 0.000000
v -0.000000 1.388447 0.000000
vn 0.0980 -0.0000 -0.9952
vn 0.2903 -0.0000 -0.9569
vn 0.4714 -0.0000 -0.8819
vn 0.6344 -0.0000 -0.7730
vn 0.7730 -0.0000 -0.6344
vn 0.8819 -0.0000 -0.4714
vn 0.9569 -0.0000 -0.2903
vn 0.9952 -0.0000 -0.0980
vn 0.9952 -0.0000 0.0980
vn 0.9569 -0.0000 0.2903
vn 0.8819 -0.0000 0.4714
vn 0.7730 -0.0000 0.6344
vn 0.6344 -0.0000 0.7730
vn 0.4714 -0.0000 0.8819
vn 0.2903 -0.0000 0.9569
vn 0.0980 -0.0000 0.9952
vn -0.0980 -0.0000 0.9952
vn -0.2903 -0.0000 0.9569
vn -0.4714 -0.0000 0.8819
vn -0.6344 -0.0000 0.7730
vn -0.7730 -0.0000 0.6344
vn -0.8819 -0.0000 0.4714
vn -0.9569 -0.0000 0.2903
vn -0.9952 -0.0000 0.0980
vn -0.9952 -0.0000 -0.0980
vn -0.9569 -0.0000 -0.2903
vn -0.8819 -0.0000 -0.4714
vn -0.7730 -0.0000 -0.6344
vn -0.6344 -0.0000 -0.7730
vn -0.4714 -0.0000 -0.8819
vn -0.0000 -1.0000 -0.0000
vn -0.2903 -0.0000 -0.9569
vn -0.0980 -0.0000 -0.9952
vn -0.6882 0.4554 0.5648
vn 0.8860 0.4554 -0.0873
vn -0.7852 0.4554 0.4197
vn 0.8860 0.4554 0.0873
vn -0.8520 0.4554 0.2584
vn 0.8520 0.4554 0.2584
vn -0.8860 0.4554 0.0873
vn 0.7852 0.4554 0.4197
vn -0.8860 0.4554 -0.0873
vn 0.6882 0.4554 0.5648
vn -0.8520 0.4554 -0.2584
vn 0.5648 0.4554 0.6882
vn -0.7852 0.4554 -0.4197
vn 0.4197 0.4554 0.7852
vn 0.0873 0.4554 -0.8860
vn -0.6882 0.4554 -0.5648
vn 0.2584 0.4554 0.8520
vn 0.2584 0.4554 -0.8520
vn -0.5648 0.4554 -0.6882
vn 0.0873 0.4554 0.8860
vn 0.4197 0.4554 -0.7852
vn -0.4197 0.4554 -0.7852
vn -0.0873 0.4554 0.8860
vn 0.5648 0.4554 -0.6882
vn -0.2584 0.4554 -0.8520
vn -0.2584 0.4554 0.8520
vn 0.6882 0.4554 -0.5648
vn -0.0873 0.4554 -0.8860
vn -0.4197 0.4554 0.7852
vn 0.7852 0.4554 -0.4197
vn -0.5648 0.4554 0.6882
vn 0.8520 0.4554 -0.2584
vt 1.000000 0.500000
vt 1.000000 1.000000
vt 0.968750 1.000000
vt 0.968750 0.500000
vt 0.937500 1.000000
vt 0.937500 0.500000
vt 0.906250 1.000000
vt 0.906250 0.500000
vt 0.875000 1.000000
vt 0.875000 0.500000
vt 0.843750 1.000000
vt 0.843750 0.500000
vt 0.812500 1.000000
vt 0.812500 0.500000
vt 0.781250 1.000000
vt 0.781250 0.500000
vt 0.750000 1.000000
vt 0.750000 0.500000
vt 0.718750 1.000000
vt 0.718750 0.500000
vt 0.687500 1.000000
vt 0.687500 0.500000
vt 0.656250 1.000000
vt 0.656250 0.500000
vt 0.625000 1.000000
vt 0.625000 0.500000
vt 0.593750 1.000000
vt 0.593750 0.500000
vt 0.562500 1.000000
vt 0.562500 0.500000
vt 0.531250 1.000000
vt 0.531250 0.500000
vt 0.500000 1.000000
vt 0.500000 0.500000
vt 0.468750 1.000000
vt 0.468750 0.500000
vt 0.437500 1.000000
vt 0.437500 0.500000
vt 0.406250 1.000000
vt 0.406250 0.500000
vt 0.375000 1.000000
vt 0.375000 0.500000
vt 0.343750 1.000000
vt 0.343750 0.500000
vt 0.312500 1.000000
vt 0.312500 0.500000
vt 0.281250 1.000000
vt 0.281250 0.500000
vt 0.250000 1.000000
vt 0.250000 0.500000
vt 0.218750 1.000000
vt 0.218750 0.500000
vt 0.187500 1.000000
vt 0.187500 0.500000
vt 0.156250 1.000000
vt 0.156250 0.500000
vt 0.125000 1.000000
vt 0.125000 0.500000
vt 0.093750 1.000000
vt 0.093750 0.500000
vt 0.062500 1.000000
vt 0.062500 0.500000
vt 0.031250 1.000000
vt 0.031250 0.500000
vt 0.000000 1.000000
vt 0.000000 0.500000
vt 0.750000 0.490000
vt 0.796822 0.485388
vt 0.841844 0.471731
vt 0.883337 0.449553
vt 0.919706 0.419706
vt 0.949553 0.383337
vt 0.971731 0.341844
vt 0.985388 0.296822
vt 0.990000 0.250000
vt 0.985388 0.203178
vt 0.971731 0.158156
vt 0.949553 0.116663
vt 0.919706 0.080294
vt 0.883337 0.050447
vt 0.841844 0.028269
vt 0.796822 0.014612
vt 0.750000 0.010000
vt 0.703178 0.014612
vt 0.658156 0.028269
vt 0.616663 0.050447
vt 0.580294 0.080294
vt 0.550447 0.116663
vt 0.528269 0.158156
vt 0.514612 0.203178
vt 0.510000 0.250000
vt 0.514612 0.296822
vt 0.528269 0.341844
vt 0.550447 0.383337
vt 0.580294 0.419706
vt 0.616663 0.449553
vt 0.658156 0.471731
vt 0.703178 0.485388
s 0
f 1/1/1 2/2/1 4/3/1 3/4/1
f 3/4/2 4/3/2 6/5/2 5/6/2
f 5/6/3 6/5/3 8/7/3 7/8/3
f 7/8/4 8/7/4 10/9/4 9/10/4
f 9/10/5 10/9/5 12/11/5 11/12/5
f 11/12/6 12/11/6 14/13/6 13/14/6
f 13/14/7 14/13/7 16/15/7 15/16/7
f 15/16/8 16/15/8 18/17/8 17/18/8
f 17/18/9 18/17/9 20/19/9 19/20/9
f 19/20/10 20/19/10 22/21/10 21/22/10
f 21/22/11 22/21/11 24/23/11 23/24/11
f 23/24/12 24/23/12 26/25/12 25/26/12
f 25/26/13 26/25/13 28/27/13 27/28/13
f 27/28/14 28/27/14 30/29/14 29/30/14
f 29/30/15 30/29/15 32/31/15 31/32/15
f 31/32/16 32/31/16 34/33/16 33/34/16
f 33/34/17 34/33/17 36/35/17 35/36/17
f 35/36/18 36/35/18 38/37/18 37/38/18
f 37/38/19 38/37/19 40/39/19 39/40/19
f 39/40/20 40/39/20 42/41/20 41/42/20
f 41/42/21 42/41/21 44/43/21 43/44/21
f 43/44/22 44/43/22 46/45/22 45/46/22
f 45/46/23 46/45/23 48/47/23 47/48/23
f 47/48/24 48/47/24 50/49/24 49/50/24
f 49/50/25 50/49/25 52/51/25 51/52/25
f 51/52/26 52/51/26 54/53/26 53/54/26
f 53/54/27 54/53/27 56/55/27 55/56/27
f 55/56/28 56/55/28 58/57/28 57/58/28
f 57/58/29 58/57/29 60/59/29 59/60/29
f 59/60/30 60/59/30 62/61/30 61/62/30
f 26/25/31 24/23/31 76/23/31 77/25/31
f 61/62/32 62/61/32 64/63/32 63/64/32
f 63/64/33 64/63/33 2/65/33 1/66/33
f 1/67/31 3/68/31 5/69/31 7/70/31 9/71/31 11/72/31 13/73/31 15/74/31 17/75/31 19/76/31 21/77/31 23/78/31 25/79/31 27/80/31 29/81/31 31/82/31 33/83/31 35/84/31 37/85/31 39/86/31 41/87/31 43/88/31 45/89/31 47/90/31 49/91/31 51/92/31 53/93/31 55/94/31 57/95/31 59/96/31 61/97/31 63/98/31
f 44/43/31 42/41/31 85/41/31 86/43/31
f 62/61/31 60/59/31 94/59/31 95/61/31
f 18/17/31 16/15/31 72/15/31 73/17/31
f 36/35/31 34/33/31 81/33/31 82/35/31
f 54/53/31 52/51/31 90/51/31 91/53/31
f 10/9/31 8/7/31 68/7/31 69/9/31
f 28/27/31 26/25/31 77/25/31 78/27/31
f 46/45/31 44/43/31 86/43/31 87/45/31
f 64/63/31 62/61/31 95/61/31 96/63/31
f 20/19/31 18/17/31 73/17/31 74/19/31
f 38/37/31 36/35/31 82/35/31 83/37/31
f 56/55/31 54/53/31 91/53/31 92/55/31
f 12/11/31 10/9/31 69/9/31 70/11/31
f 30/29/31 28/27/31 78/27/31 79/29/31
f 48/47/31 46/45/31 87/45/31 88/47/31
f 4/3/31 2/2/31 65/2/31 66/3/31
f 2/65/31 64/63/31 96/63/31 65/65/31
f 22/21/31 20/19/31 74/19/31 75/21/31
f 40/39/31 38/37/31 83/37/31 84/39/31
f 58/57/31 56/55/31 92/55/31 93/57/31
f 14/13/31 12/11/31 70/11/31 71/13/31
f 32/31/31 30/29/31 79/29/31 80/31/31
f 50/49/31 48/47/31 88/47/31 89/49/31
f 6/5/31 4/3/31 66/3/31 67/5/31
f 24/23/31 22/21/31 75/21/31 76/23/31
f 42/41/31 40/39/31 84/39/31 85/41/31
f 60/59/31 58/57/31 93/57/31 94/59/31
f 16/15/31 14/13/31 71/13/31 72/15/31
f 34/33/31 32/31/31 80/31/31 81/33/31
f 52/51/31 50/49/31 89/49/31 90/51/31
f 8/7/31 6/5/31 67/5/31 68/7/31
f 86/43/34 85/41/34 117/41/34 118/43/34
f 73/17/35 72/15/35 104/15/35 105/17/35
f 87/45/36 86/43/36 118/43/36 119/45/36
f 74/19/37 73/17/37 105/17/37 106/19/37
f 88/47/38 87/45/38 119/45/38 120/47/38
f 75/21/39 74/19/39 106/19/39 107/21/39
f 89/49/40 88/47/40 120/47/40 121/49/40
f 76/23/41 75/21/41 107/21/41 108/23/41
f 90/51/42 89/49/42 121/49/42 122/51/42
f 77/25/43 76/23/43 108/23/43 109/25/43
f 91/53/44 90/51/44 122/51/44 123/53/44
f 78/27/45 77/25/45 109/25/45 110/27/45
f 92/55/46 91/53/46 123/53/46 124/55/46
f 79/29/47 78/27/47 110/27/47 111/29/47
f 66/3/48 65/2/48 97/2/48 98/3/48
f 93/57/49 92/55/49 124/55/49 125/57/49
f 80/31/50 79/29/50 111/29/50 112/31/50
f 67/5/51 66/3/51 98/3/51 99/5/51
f 94/59/52 93/57/52 125/57/52 126/59/52
f 81/33/53 80/31/53 112/31/53 113/33/53
f 68/7/54 67/5/54 99/5/54 100/7/54
f 95/61/55 94/59/55 126/59/55 127/61/55
f 82/35/56 81/33/56 113/33/56 114/35/56
f 69/9/57 68/7/57 100/7/57 101/9/57
f 96/63/58 95/61/58 127/61/58 128/63/58
f 83/37/59 82/35/59 114/35/59 115/37/59
f 70/11/60 69/9/60 101/9/60 102/11/60
f 65/65/61 96/63/61 128/63/61 97/65/61
f 84/39/62 83/37/62 115/37/62 116/39/62
f 71/13/63 70/11/63 102/11/63 103/13/63
f 85/41/64 84/39/64 116/39/64 117/41/64
f 72/15/65 71/13/65 103/13/65 104/15/65
